HIERARCHY
ROOT Hips
{
	OFFSET -3.958830 18.904000 13.208200
	CHANNELS 6 Xposition Yposition Zposition Zrotation Yrotation Xrotation 
	JOINT LHipJoint
	{
		OFFSET 0.000000 0.000000 0.000000
		CHANNELS 3 Zrotation Yrotation Xrotation
		JOINT LeftUpLeg
		{
			OFFSET 1.800000 -1.400000 0.085000
			CHANNELS 3 Zrotation Yrotation Xrotation
			JOINT LeftLeg
			{
				OFFSET 2.215000 -6.000000 0.000000
				CHANNELS 3 Zrotation Yrotation Xrotation
				JOINT LeftFoot
				{
					OFFSET 2.500000 -6.900000 0.000000
					CHANNELS 3 Zrotation Yrotation Xrotation
					JOINT LeftToeBase
					{
						OFFSET 0.200000 -0.500000 1.950000
						CHANNELS 3 Zrotation Yrotation Xrotation
						End Site
						{
							OFFSET 0.000000 0.000000 0.000000
						}
					}
				}
			}
		}
	}
	JOINT RHipJoint
	{
		OFFSET 0.000000 0.000000 0.000000
		CHANNELS 3 Zrotation Yrotation Xrotation
		JOINT RightUpLeg
		{
			OFFSET -1.800000 -1.400000 0.085000
			CHANNELS 3 Zrotation Yrotation Xrotation
			JOINT RightLeg
			{
				OFFSET -2.215000 -6.000000 0.000000
				CHANNELS 3 Zrotation Yrotation Xrotation
				JOINT RightFoot
				{
					OFFSET -2.500000 -6.900000 0.000000
					CHANNELS 3 Zrotation Yrotation Xrotation
					JOINT RightToeBase
					{
						OFFSET -0.200000 -0.500000 1.950000
						CHANNELS 3 Zrotation Yrotation Xrotation
						End Site
						{
							OFFSET 0.000000 0.000000 0.000000
						}
					}
				}
			}
		}
	}
	JOINT LowerBack
	{
		OFFSET 0.000000 0.000000 0.000000
		CHANNELS 3 Zrotation Yrotation Xrotation
		JOINT Spine
		{
			OFFSET -0.087000 1.940000 -0.288900
			CHANNELS 3 Zrotation Yrotation Xrotation
			JOINT Spine1
			{
				OFFSET 0.000000 1.950000 0.060000
				CHANNELS 3 Zrotation Yrotation Xrotation
				JOINT Neck
				{
					OFFSET 0.000000 0.000000 0.000000
					CHANNELS 3 Zrotation Yrotation Xrotation
					JOINT Neck1
					{
						OFFSET 0.000000 1.600000 0.340000
						CHANNELS 3 Zrotation Yrotation Xrotation
						JOINT Head
						{
							OFFSET 0.000000 1.667000 -0.240000
							CHANNELS 3 Zrotation Yrotation Xrotation
							End Site
							{
								OFFSET 0.000000 0.000000 0.000000
							}
						}
					}
				}
				JOINT LeftShoulder
				{
					OFFSET 0.000000 0.000000 0.000000
					CHANNELS 3 Zrotation Yrotation Xrotation
					JOINT LeftArm
					{
						OFFSET 2.700000 1.550000 -0.730000
						CHANNELS 3 Zrotation Yrotation Xrotation
						JOINT LeftForeArm
						{
							OFFSET 5.450000 0.000000 0.000000
							CHANNELS 3 Zrotation Yrotation Xrotation
							JOINT LeftHand
							{
								OFFSET 3.450000 0.000000 0.000000
								CHANNELS 3 Zrotation Yrotation Xrotation
								JOINT LeftHandIndex1
								{
									OFFSET 0.750000 0.000000 0.000000
									CHANNELS 3 Zrotation Yrotation Xrotation
									End Site
									{
										OFFSET 0.000000 0.000000 0.000000
									}
								}
							}
						}
					}
				}
				JOINT RightShoulder
				{
					OFFSET 0.000000 0.000000 0.000000
					CHANNELS 3 Zrotation Yrotation Xrotation
					JOINT RightArm
					{
						OFFSET -2.700000 1.550000 -0.730000
						CHANNELS 3 Zrotation Yrotation Xrotation
						JOINT RightForeArm
						{
							OFFSET -5.450000 0.000000 0.000000
							CHANNELS 3 Zrotation Yrotation Xrotation
							JOINT RightHand
							{
								OFFSET -3.450000 0.000000 0.000000
								CHANNELS 3 Zrotation Yrotation Xrotation
								JOINT RightHandIndex1
								{
									OFFSET -0.750000 0.000000 0.000000
									CHANNELS 3 Zrotation Yrotation Xrotation
									End Site
									{
										OFFSET 0.000000 0.000000 0.000000
									}
								}
							}
						}
					}
				}
			}
		}
	}
}
MOTION
Frames: 9
Frame Time: 0.016667
0.011940 14.435860 -0.051040 -39.424173 10.006882 -9.265526 -15.888644 9.607726 5.935201 -9.559865 -22.053414 -48.067887 -6.470800 22.605366 77.482296 2.007668 15.262451 -0.754636 0.604470 0.741460 0.786820 18.408458 -5.960505 5.026814 -29.649780 12.337975 -45.715117 27.078492 -35.407604 75.276919 -3.314814 -14.989235 -0.890862 0.304800 -0.213880 0.433120 -2.622486 -4.102819 -10.376873 1.897480 4.508842 73.543649 -0.918096 1.703420 32.056883 1.855570 2.472810 -22.308199 -0.886647 6.028060 55.189145 1.707330 9.070080 -29.742180 13.933832 -39.051273 11.282343 -12.149042 -16.732483 1.232658 7.986285 4.985600 -0.895827 -4.102513 2.090551 0.801470 -0.311560 0.860760 -0.135650 -19.643462 35.359269 12.694623 22.096865 13.167781 -9.234671 -26.796962 -0.554975 -2.027591 3.220166 -1.367046 0.082630 0.301770 -0.043840 -0.028480 
0.006130 14.364970 0.019220 -40.802601 9.094208 -12.368572 -15.842793 9.647733 5.752081 -3.974169 -20.540897 -48.046146 -13.509522 27.984421 75.865176 2.235104 16.317410 -0.995597 0.538190 0.633210 0.766150 18.405519 -5.924260 5.183550 -30.453537 13.019423 -45.787000 30.528262 -37.353031 73.433273 -3.339472 -15.085928 -0.885967 0.267290 -0.174720 0.413980 -2.687368 -4.034671 -10.371148 2.506396 3.662510 73.937600 -1.860924 1.882544 32.342679 2.545122 2.727354 -22.478603 -0.596048 5.750920 55.459665 1.007000 8.650750 -28.137310 12.856369 -38.948087 11.571446 -12.538928 -16.033846 1.671109 6.891717 4.131612 -0.867319 -4.055235 2.038833 0.810200 -0.279660 0.807290 -0.156880 -19.979091 35.039298 12.970197 21.070394 11.321516 -9.946490 -26.975430 -0.470295 -2.008671 3.248483 -1.340966 0.024630 0.319920 -0.003720 -0.056770 
-0.003540 14.247690 0.092050 -42.662315 6.966521 -15.018411 -15.771940 9.311628 5.872140 2.795774 -19.072159 -51.337371 -19.556145 33.371853 75.758710 2.569243 17.428544 -1.233044 0.535150 0.645180 0.729010 18.466824 -5.840818 5.298716 -29.836925 14.386992 -46.418980 32.732842 -40.446125 74.290234 -3.510218 -15.608812 -0.956222 0.266000 -0.166780 0.383300 -2.906590 -3.539388 -10.483398 4.199105 1.991120 73.748204 -2.939580 2.380950 31.956047 2.663720 2.124082 -22.265946 -2.519222 5.730986 55.594301 2.053530 7.459110 -26.791050 11.864931 -39.243453 12.093520 -14.711104 -16.086091 2.222538 6.434571 3.713948 -0.732695 -3.943969 2.152915 0.763850 -0.284330 0.775700 -0.141680 -19.091321 35.170271 12.663140 21.925196 8.765602 -14.388482 -32.729995 2.801569 -3.898802 3.278092 -1.565022 0.041610 0.312670 -0.017010 -0.028730 
0.000350 14.142980 0.170480 -44.470488 4.661544 -17.596828 -15.725455 8.927885 6.138455 8.476522 -17.370506 -54.969087 -23.379049 37.328734 76.267845 2.819828 18.174795 -1.385236 0.591060 0.717440 0.745140 18.525575 -5.779922 5.280415 -28.420944 15.855482 -46.276163 33.917094 -42.845475 75.363093 -3.694896 -16.061739 -1.053611 0.294990 -0.190750 0.412150 -3.107547 -3.042689 -10.588485 5.741244 0.408015 73.552190 -4.090270 2.851035 31.897200 2.782652 1.552768 -21.775335 -4.059331 6.522276 54.672466 2.977520 7.508720 -26.492990 11.614945 -39.379338 12.580365 -17.387514 -16.475122 2.736809 6.299060 4.471463 -0.623261 -3.881593 2.306232 0.729420 -0.299380 0.804140 -0.108830 -19.106927 34.808843 12.291767 21.722768 6.795570 -16.910262 -35.784041 5.967023 -5.320883 3.294374 -1.733193 0.095270 0.270700 -0.065860 0.001070 
0.026870 14.045110 0.276620 -45.290952 1.174806 -19.929869 -15.684088 8.719578 6.262538 12.945470 -13.762787 -55.179327 -28.196728 39.941626 72.340989 2.836284 17.893879 -1.320240 0.612540 0.763490 0.704960 18.559878 -5.761495 5.308926 -27.093605 17.980582 -45.962028 35.939350 -44.819260 75.679999 -3.789899 -16.391941 -1.095789 0.329050 -0.231550 0.352200 -3.293978 -2.557148 -10.645737 6.237247 -0.436079 72.624338 -6.066227 3.595217 32.918124 3.693881 0.332946 -22.592926 -7.391662 6.697437 54.357088 3.428910 5.434940 -24.256600 10.758925 -39.451631 13.287831 -19.644598 -15.134515 2.574249 6.571417 3.861224 -0.466881 -3.754999 2.478755 0.654390 -0.325290 0.758270 -0.090600 -19.914500 36.268900 12.539297 20.502314 4.756165 -19.263435 -37.144185 7.321072 -6.052675 3.479335 -1.916653 0.121900 0.228220 -0.104760 0.024790 
0.072830 13.962850 0.344610 -44.522530 2.151965 -22.493607 -15.739160 8.606155 6.377684 13.921637 -14.449685 -56.245788 -34.016836 41.145960 67.730571 2.856875 17.527783 -1.198374 0.630120 0.774510 0.709880 18.512678 -5.518737 5.407111 -29.379651 16.501584 -44.934339 42.039337 -50.189011 73.567609 -3.879143 -16.400785 -1.066461 0.332030 -0.262540 0.343550 -3.131544 -2.935588 -10.743002 5.020523 -0.517442 73.320710 -5.374654 2.835009 33.111631 4.087455 0.172396 -22.973488 -7.617055 6.569648 53.927841 3.075940 5.165580 -23.451020 10.571470 -40.098404 13.826933 -21.185779 -14.756958 2.369761 6.545905 3.120204 -0.405666 -3.656497 2.575659 0.639470 -0.339080 0.755150 -0.072700 -20.385056 36.181433 12.583082 19.030419 1.795850 -20.397392 -37.538055 8.355536 -6.194817 3.567315 -1.993150 0.135540 0.192170 -0.138540 0.022620 
0.124140 13.874550 0.414830 -44.426559 2.845759 -24.793334 -15.778922 8.753383 6.260300 12.200624 -15.752084 -55.754193 -31.035010 39.105335 69.101107 2.823003 17.444885 -1.188575 0.653770 0.789220 0.713230 18.455426 -5.451453 5.507369 -30.908666 15.309146 -43.860261 47.309331 -53.686892 70.941559 -3.870967 -16.081664 -0.997523 0.338920 -0.270770 0.369030 -2.978728 -3.332750 -10.719092 4.782152 -0.800125 73.571383 -4.139618 2.229750 33.693623 4.320555 -0.196999 -23.373254 -8.165422 6.504886 52.958735 3.436090 4.704270 -23.102830 10.079275 -41.366110 14.506463 -22.378660 -15.074882 2.502840 6.206173 3.307527 -0.380011 -3.610619 2.643660 0.626550 -0.343830 0.759480 -0.058330 -20.224295 36.148152 12.248373 16.653374 -2.109551 -22.246325 -38.767158 8.944849 -6.439168 3.715820 -2.064795 0.159470 0.158210 -0.153880 0.033840 
0.181430 13.770180 0.506450 -43.214348 3.692092 -26.886692 -15.794953 9.058942 5.972555 7.561602 -17.232380 -53.323372 -26.677264 35.718798 69.732364 2.673715 16.953416 -1.095061 0.682510 0.807930 0.740050 18.394614 -5.524022 5.626831 -32.549821 13.041158 -42.763041 60.356832 -58.956758 62.849183 -3.698464 -14.808455 -0.684664 0.356290 -0.307340 0.344320 -2.848130 -3.725001 -10.628279 4.207123 -0.745809 73.408567 -3.392248 1.715174 33.985357 4.743586 -0.392374 -24.007122 -8.635779 6.833942 53.441955 3.619470 4.591070 -22.920450 8.797354 -43.172670 15.558981 -23.398686 -14.580943 2.262479 6.321897 2.745761 -0.364463 -3.514330 2.696417 0.635720 -0.370030 0.759030 -0.055960 -19.610697 36.585062 11.434175 15.227968 -5.280569 -24.932391 -42.141249 9.098913 -7.287338 3.886729 -2.126282 0.155730 0.146200 -0.179660 0.017550 
0.244380 13.661560 0.599090 -41.235746 2.170492 -29.643763 -15.746940 9.608063 5.558362 1.711239 -16.615576 -47.948380 -21.561875 31.869461 69.269446 2.466120 16.002986 -0.899950 0.709870 0.841880 0.756420 18.348131 -5.990065 5.492976 -32.331088 11.382733 -41.140559 78.446575 -60.418733 49.784130 -3.428038 -13.037588 -0.259861 0.344010 -0.365850 0.349030 -2.876695 -3.736698 -10.368733 2.816002 0.187091 74.459660 -3.903187 1.929270 32.592632 5.324051 -0.809320 -24.143266 -10.601322 7.830942 54.757517 4.489470 4.398450 -24.292350 6.733993 -43.233851 15.911796 -24.829945 -14.083830 2.343332 5.722569 2.004458 -0.347691 -3.374226 2.755689 0.673130 -0.430450 0.814000 -0.057430 -18.693657 37.774475 11.011263 13.041099 -7.343341 -27.044838 -44.491695 10.366847 -8.012883 4.007231 -2.144643 0.193080 0.122720 -0.200080 0.024200 
